<?xml version="1.0" encoding="UTF-8" standalone="no"?>
<!-- Created with Inkscape (http://www.inkscape.org/) -->
<svg id="svg2" xmlns:rdf="http://www.w3.org/1999/02/22-rdf-syntax-ns#" xmlns="http://www.w3.org/2000/svg" xmlns:osb="http://www.openswatchbook.org/uri/2009/osb" height="300" width="600" version="1.1" xmlns:cc="http://creativecommons.org/ns#" xmlns:dc="http://purl.org/dc/elements/1.1/">
 <defs id="defs4"></defs>
 <metadata id="metadata7">
  <rdf:RDF>
   <cc:Work rdf:about="">
    <dc:format>image/svg+xml</dc:format>
    <dc:type rdf:resource="http://purl.org/dc/dcmitype/StillImage"/>
    <dc:title/>
   </cc:Work>
  </rdf:RDF>
 </metadata>
 <g id="layer1" transform="translate(0,-752.36224)" stroke="#322a00" stroke-dasharray="none" stroke-miterlimit="4" fill="#ffe665">
  <rect id="rect3051" height="64.525" width="621.91" y="868.4" x="-8.2372" stroke-width="2"/>
  <path id="flowRoot3829" stroke-linejoin="miter" style="text-align:center;" d="M197.03,25c-9.76,0-16.43,8.855-16.87,22.438-0.2,5.58,0.86,9.791,3.15,13.687,1.6,2.527,4.21,5.996,6.31,8.313,1.35,1.579,1.79,2.525,1.79,4,0,1.79-1.22,3.261-2.63,3.156-3.06-0.316-6.9-3.152-10.16-7.469l-3.56,21.375c1.47,1.369,2.04,1.908,3.32,2.75,3.82,2.527,9.38,4.406,13.28,4.406,11.67,0,18.56-8.625,18.56-23.156,0-7.581-1.79-12.097-7.41-18.625-0.57-0.632-1.27-1.474-1.78-2-0.89-1.053-1.09-1.372-1.34-1.687-1.22-1.58-1.6-2.85-1.53-4.219,0.12-1.685,1.4-2.836,2.93-2.625,2.49,0.316,4.92,2.007,9.07,6.218l1.87-20.437c-5.55-4.633-9.06-6.125-15-6.125zm34.38,0c-9.77,0-16.4,8.855-16.85,22.438-0.19,5.58,0.83,9.791,3.13,13.687,1.59,2.527,4.24,5.996,6.34,8.313,1.34,1.579,1.78,2.525,1.78,4,0,1.79-1.22,3.261-2.62,3.156-3.07-0.316-6.9-3.152-10.16-7.469l-3.56,21.375c1.47,1.369,2.03,1.908,3.31,2.75,3.83,2.527,9.39,4.406,13.28,4.406,11.68,0,18.56-8.625,18.56-23.156,0-7.581-1.79-12.097-7.4-18.625-0.58-0.632-1.27-1.474-1.78-2-0.9-1.053-1.09-1.372-1.35-1.687-1.21-1.58-1.59-2.85-1.53-4.219,0.13-1.685,1.41-2.836,2.94-2.625,2.49,0.316,4.91,2.007,9.06,6.218l1.85-20.437c-5.56-4.633-9.07-6.125-15-6.125zm57.84,0c-13.02,0-23.29,15.707-24.44,37.188-1.08,20.637,7.36,35.468,20.25,35.468,5.87,0,10.45-1.675,16.06-5.781l3.35-36.125h-13.88l-1.84,20.75h-0.5c-1.66,0-2.75-0.514-4.09-2.094-2.11-2.632-3.07-6.008-3.07-11.062,0-7.897,3.97-14.75,8.44-14.75,2.55,0,4.4,1.068,7.72,4.437l7.72-20.343c-4.85-5.581-9.21-7.688-15.72-7.688zm30.44,0.438l-9.78,3.062-6.19,67.375h14.16l2.5-27.906,13.78,29.281,10.09-3.062,6.19-67.376h-14.1l-2.62,28.844-14.03-30.218zm79.53,0.312c-2.55,0-5.82,0.329-8.75,0.75-1.02,0.105-2.68,0.423-4.78,0.844l-6.19,68.531h14.88l1.84-20.437h2.5l4.9,20.437h17.16l-8.94-26.75c5.05-4.633,7.82-11.784,7.82-20.313,0-7.265-2.25-14.638-5.63-18.218-3.25-3.475-7.47-4.844-14.81-4.844zm-249.19,1.062l-23.53,69.063h15.25l2.87-9.156h13.85l1.19,9.156h15.53l-11.31-69.063h-13.85zm101,0l-6.28,69.063h14.87l6.26-69.063h-14.85zm102.31,0l-6.25,69.063h29.57l3.12-18.313h-16.78l0.75-8.437h11.37l1.47-16.406h-11.31l0.72-7.813h13.5l1.69-18.094h-27.85zm46.28,18.219c0.2-0.013,0.38,0,0.44,0,3.58,0,5.48,2.629,5.28,7.157-0.12,3.474-2.02,7.031-3.68,7.031h-3.97l1.28-14.094c0.22-0.053,0.46-0.081,0.65-0.094zm-245.43,11.031l2.34,17.063h-7.65l5.31-17.063z" transform="translate(0,752.36224)" stroke-linecap="butt" stroke-width="3.84249783"/>
 </g>
</svg>
